<?xml version="1.0" encoding="UTF-8" standalone="no"?>
<!DOCTYPE svg PUBLIC "-//W3C//DTD SVG 1.1//EN" "http://www.w3.org/Graphics/SVG/1.1/DTD/svg11.dtd">
<svg width="100%" height="100%" viewBox="0 0 341 284" version="1.1" xmlns="http://www.w3.org/2000/svg" xmlns:xlink="http://www.w3.org/1999/xlink" xml:space="preserve" xmlns:serif="http://www.serif.com/" style="fill-rule:evenodd;clip-rule:evenodd;stroke-linejoin:round;stroke-miterlimit:2;">
    <path d="M254.069,185.25L253.975,185.494L270.754,200.395C266.963,208.734 262.373,216.685 257.047,224.137L235.753,217.057C230.225,223.956 223.956,230.225 217.057,235.753L224.137,257.047C216.685,262.373 208.734,266.963 200.395,270.754L185.494,253.975C177.258,257.187 168.693,259.481 159.955,260.819L155.44,282.8C146.323,283.686 137.142,283.686 128.025,282.8L123.51,260.819C114.771,259.481 106.207,257.187 97.971,253.975L83.069,270.754C74.731,266.963 66.78,262.373 59.327,257.047L66.408,235.753C59.509,230.225 53.239,223.956 47.712,217.057L26.418,224.137C21.092,216.685 16.501,208.734 12.71,200.395L29.489,185.494C26.278,177.258 23.983,168.693 22.646,159.955L0.664,155.44C-0.221,146.323 -0.221,137.142 0.664,128.025L22.646,123.51C23.983,114.771 26.278,106.207 29.489,97.971L12.71,83.069C16.501,74.731 21.092,66.78 26.418,59.327L47.712,66.408C53.239,59.509 59.509,53.239 66.408,47.712L59.327,26.418C66.78,21.092 74.731,16.501 83.069,12.71L97.971,29.489C106.207,26.278 114.771,23.983 123.51,22.646L128.025,0.664C137.142,-0.221 146.323,-0.221 155.44,0.664L159.955,22.646C168.693,23.983 177.258,26.278 185.494,29.489L200.395,12.71C208.734,16.501 216.685,21.092 224.137,26.418L217.273,47.06L140.03,47.06C120.963,47.06 105.483,62.541 105.483,81.608L105.483,150.703C105.483,169.77 120.963,185.25 140.03,185.25L181.752,185.25L152.418,244.474L216.953,185.25L254.069,185.25C257.232,177.088 259.495,168.607 260.819,159.955L282.8,155.44C283.686,146.323 283.686,137.142 282.8,128.025L260.819,123.51C259.481,114.771 257.187,106.207 253.975,97.971L270.754,83.069C266.963,74.731 262.373,66.78 257.047,59.327L235.753,66.408C230.225,59.509 223.956,53.239 217.057,47.712L217.273,47.06L305.61,47.06C324.677,47.06 340.157,62.541 340.157,81.608L340.157,150.703C340.157,169.77 324.677,185.25 305.61,185.25L254.069,185.25Z"/>
</svg>
